<svg xmlns="http://www.w3.org/2000/svg" xmlns:xlink="http://www.w3.org/1999/xlink" version="1.1" id="Credit_Card" x="0px" y="0px" viewBox="0 0 1920 1080" style="enable-background:new 0 0 1920 1080;" xml:space="preserve">
<style type="text/css">
	.st0{opacity:0.1;fill:#2A94F4;}
	.st1{fill:#0B4870;}
	.st2{fill:#FFBE55;}
	.st3{fill:#333333;}
	.st4{fill:#F7F7F7;}
	.st5{fill:#FCD2B1;}
	.st6{fill:#2A94F4;}
	.st7{fill:#FFE3CA;}
	.st8{fill:#0E538C;}
</style>
<path class="st0" d="M1190.36,6.3c-173.49,0-327.27,83.32-422.61,211.67c-50.18-20.85-105.3-32.38-163.15-32.38  c-232.55,0-421.07,186.25-421.07,416.01s188.52,416.01,421.07,416.01c98.01,0,188.21-33.09,259.76-88.57  c89.47,70.36,202.76,112.41,326,112.41c289.32,0,523.87-231.72,523.87-517.57S1479.68,6.3,1190.36,6.3z"/>
<ellipse class="st0" cx="929.15" cy="996.52" rx="735.57" ry="83.48"/>
<path class="st1" d="M375.14,197.94c0,0,9.08-5.8,6.48-19.63c-2.59-13.83-9.51-31.56-30.69-27.24s-20.32,7.98-28.53-0.66  c-8.21-8.65-36.52,10.95-30.12,20.4c3.03,4.47,4.28,13.11-8.09,18.3c-12.37,5.19-13.7,36.41,10.4,32.97  c6.05-0.86,5.71,8.44,2.45,11.99c-7.34,7.98,10.23,28.53,23.63,13.83C334.07,233.21,375.14,197.94,375.14,197.94z"/>
<path class="st2" d="M451.03,1026.68h1055.3c38.07,0,68.94-30.86,68.94-68.94V373.66c0-38.07-30.86-68.94-68.94-68.94H451.03  c-38.07,0-68.94,30.86-68.94,68.94v584.08C382.09,995.82,412.95,1026.68,451.03,1026.68z"/>
<rect x="382.09" y="402.43" transform="matrix(-1 -1.047485e-11 1.047485e-11 -1 1957.3533 973.2778)" class="st3" width="1193.18" height="168.41"/>
<rect x="439.62" y="668.56" transform="matrix(-1 -3.701162e-12 3.701162e-12 -1 1718.7178 1378.9266)" class="st4" width="839.48" height="41.82"/>
<rect x="439.62" y="745.35" transform="matrix(-1 -3.809964e-12 3.809964e-12 -1 1495.6456 1522.2675)" class="st4" width="616.41" height="31.56"/>
<rect x="439.62" y="811.9" transform="matrix(-1 -3.803746e-12 3.803746e-12 -1 1495.6456 1655.3574)" class="st4" width="616.41" height="31.56"/>
<polygon class="st5" points="369.14,947.92 365.1,983.32 340.32,983.32 340.32,943.21 "/>
<polygon class="st5" points="272.52,947.92 268.48,983.32 243.7,983.32 243.7,943.21 "/>
<path class="st5" d="M352.84,261.12c-0.76,11.83-5.72,22.07-10.93,22.56c-4.94,0-9.88,0-14.83,0c-5.21-0.49-10.16-10.74-10.94-22.56  c-1.21-19.51,1.35-26.41,0.13-45.92c-0.8-11.7,41.02-24.29,40.22-12.59C355.28,222.1,354.06,241.6,352.84,261.12z"/>
<path class="st5" d="M430.86,257.08c0,0,25.44,4.03,35.84,6.58c28.89,7.1,39.77,20.48,46.78,26.9c7.01,6.42-8.39,7.19-16.18,12.97  c-7.79,5.78-71.11-10.98-84.35-18.68C399.69,277.14,422.29,257.08,430.86,257.08z"/>
<path class="st6" d="M337.72,277.78c18.1-3.88,15.13-21.51,15.13-21.51s44.5-9.59,68.65-3.88c24.15,5.71,35.06,8.77,37.4,9.58  c2.34,0.82-18.7,3.47-25.71,28.76c-7.01,25.29-8.76,29.37-8.76,29.37l-16.17-2.45c0,0-10.73,204.22-14.62,223.8  c-3.9,19.58-85.65,26.23-119.46,6.92c0,0-3.03-81.49-3.03-192.65l-1.58-91.09c0,0,38.01-3.51,46.58-3.51  C316.15,261.12,315.82,282.47,337.72,277.78z"/>
<path class="st7" d="M509.34,286.62c-8.89-6.62-16.89-5.34-46.84,4.01c-39.77,12.42-52.98,17.37-59.13,20.04  c-6.14,2.67-9.84,11.32-12.91,21.34c-3.07,10.02,2.16,16.45,2.16,18.45c0,1.26,8.18,5.08,14.27,5.25c3.69,0.11,5.19-5.31,1.97-19.4  c-4.42-19.4,62.45-20.58,71.66-21.91C489.74,313.07,530.25,302.19,509.34,286.62z"/>
<path class="st5" d="M193.58,430.49c0.01-24.33,37.85-99.95,37.85-99.95c0.02-0.18,0.06-0.34,0.1-0.49  c0.01-0.05,0.03-0.09,0.05-0.13c0.03-0.09,0.06-0.19,0.1-0.27c0.02-0.05,0.05-0.08,0.07-0.12c0.04-0.07,0.08-0.13,0.12-0.19  c0.03-0.04,0.06-0.06,0.1-0.1c0.05-0.05,0.09-0.09,0.14-0.13c0.04-0.03,0.08-0.04,0.12-0.06c0.05-0.03,0.1-0.06,0.16-0.08  c0.04-0.02,0.09-0.02,0.14-0.03c0.06-0.01,0.12-0.03,0.18-0.03c0.05,0,0.11,0,0.16,0c0.07,0,0.13,0,0.2,0.01  c0.06,0.01,0.12,0.02,0.18,0.04c0.07,0.02,0.14,0.03,0.22,0.06c0.06,0.02,0.13,0.05,0.19,0.07c0.08,0.03,0.16,0.06,0.24,0.1  c0.07,0.03,0.14,0.07,0.21,0.1c0.08,0.04,0.17,0.08,0.26,0.13c0.07,0.04,0.15,0.09,0.23,0.13c0.09,0.05,0.18,0.11,0.27,0.17  c0.08,0.05,0.16,0.11,0.24,0.17c0.09,0.07,0.19,0.13,0.29,0.21c0.08,0.06,0.17,0.13,0.25,0.19c0.1,0.08,0.2,0.16,0.31,0.24  c0.09,0.07,0.17,0.14,0.26,0.22c0.11,0.09,0.22,0.18,0.33,0.28c0.09,0.08,0.18,0.16,0.27,0.24c0.11,0.1,0.23,0.21,0.34,0.31  c0.09,0.09,0.18,0.17,0.28,0.26c0.12,0.11,0.24,0.23,0.36,0.35c0.09,0.09,0.19,0.19,0.28,0.28c0.12,0.13,0.25,0.26,0.38,0.39  c0.09,0.1,0.19,0.2,0.28,0.3c0.13,0.14,0.26,0.28,0.4,0.42c0.09,0.1,0.19,0.2,0.28,0.31c0.14,0.15,0.28,0.31,0.42,0.47  c0.09,0.1,0.18,0.2,0.27,0.31c0.15,0.17,0.3,0.34,0.45,0.52c0.09,0.1,0.18,0.21,0.27,0.31c0.16,0.18,0.31,0.37,0.47,0.56  c0.08,0.1,0.17,0.2,0.25,0.3c0.17,0.21,0.34,0.42,0.51,0.63c0.08,0.09,0.15,0.18,0.23,0.28c0.18,0.23,0.37,0.47,0.56,0.7  c0.06,0.08,0.13,0.16,0.19,0.24c0.21,0.27,0.42,0.55,0.64,0.83c0.04,0.05,0.08,0.1,0.12,0.15c0.24,0.32,0.49,0.65,0.73,0.98  c0.01,0.01,0.02,0.03,0.03,0.04c9.59,12.91,14.46,25.58,10.8,31.33c-4.95,7.78-32.88,47.27-26.48,61.53  c6.4,14.27,45.41,72.54,45.41,72.54l-5.93,18.24C268.36,523.87,193.57,464.27,193.58,430.49z"/>
<path class="st6" d="M278.91,266.7c0,0-12.98-14.24-31.4,21.12c-10.99,21.12-20.26,42.87-27.64,62.27c0,0,28.33,47.99,40.84,27.5  c3.61-5.92,13.13-19.92,15.77-26.45C292.26,312.21,278.91,266.7,278.91,266.7z"/>
<path class="st7" d="M367.41,170.81c4.23,6.34,6.09,26.61,4.74,35.16c-5.19,32.86-18.46,54.84-55.17,27.09  c-7.93-6-8.66-17.58-9.95-19.31c-1.29-1.73-10.8-4.32-9.94-17.29s9.8-6.34,11.53,2.88l4.61,7.79c0.36,0.61,1,1.01,1.71,1.06l0,0  c1.45,0.1,2.58-1.22,2.26-2.63l-3.11-13.79c0,0,12.97,5.27,17.87-6.55c4.9-11.82,20.75,10.38,27.38-5.19L367.41,170.81z"/>
<path class="st1" d="M336.57,979.81h3.75c0,0,13.7,6.7,25.19,0h5l2.59,7.57c0,0,5.14,11.13,25.51,5.19  c13.66-3.99,20.75,10.59,21.18,24.43h-83.22V979.81z"/>
<path class="st1" d="M239.73,979.81h3.75c0,0,13.7,6.7,25.19,0h5l2.59,7.57c0,0,5.14,11.13,25.51,5.19  c13.66-3.99,20.75,10.59,21.18,24.43h-83.22V979.81z"/>
<path class="st8" d="M397.19,513.78c0,0,1.3,218.43-2.15,271.59c-3.46,53.16-22.45,170.39-22.45,170.39h-36.41  c0,0,10.01-163.92,10.01-179.48S331.76,621.15,318,618.4c-12.97-2.59-12.7,111.54-13.42,158.23c-0.72,46.69-30.4,179.13-30.4,179.13  h-34.44c0,0,18.77-126.39,15.62-186.04c-1.72-32.52-3.82-85.73-3.32-139.2c0.41-44.63,21.45-112.34,21.45-112.34L397.19,513.78z"/>
<g>
	<path class="st7" d="M272.85,495.37c3.17,1.22,3.02,0.96,3.02,0.96s30.38,18.63,11.69,38.79c-6.44,6.94-15.3,1.82-18.61-5.95   l-1.85-4.33C267.1,524.84,269.67,494.15,272.85,495.37z"/>
</g>
</svg>